<svg width="450" height="450" viewBox="0 0 450 450" fill="none" xmlns="http://www.w3.org/2000/svg">
<path fill-rule="evenodd" clip-rule="evenodd" d="M204.354 138.282L108.476 78.2899C105.985 76.814 103.801 74.8203 102.054 72.4283C100.307 70.0363 99.0325 67.2951 98.3074 64.3687C97.5823 61.4423 97.4213 58.3908 97.8339 55.3968C98.2466 52.4028 99.2245 49.5279 100.709 46.9441C102.194 44.3602 104.154 42.1206 106.474 40.3591C108.794 38.5976 111.425 37.3505 114.209 36.6924C116.994 36.0343 119.875 35.9787 122.68 36.5289C125.486 37.0792 128.158 38.224 130.536 39.8949L225.566 99.8872L204.354 138.282Z" fill="#B3CFFF"/>
<path fill-rule="evenodd" clip-rule="evenodd" d="M211.707 241.769L18.5369 123.284C16.1228 121.807 14.0065 119.84 12.3091 117.495C10.6117 115.151 9.36635 112.475 8.64413 109.62C7.18552 103.854 7.94634 97.7091 10.7592 92.5381C13.5721 87.367 18.2066 83.5929 23.6433 82.0459C29.0799 80.4989 34.8732 81.3058 39.7489 84.2891L211.707 189.876V241.769Z" fill="#B3CFFF"/>
<path fill-rule="evenodd" clip-rule="evenodd" d="M440.231 92.3881C437.356 87.4956 432.84 83.94 427.592 82.4372C422.344 80.9345 416.754 81.5962 411.948 84.2892L246.495 184.476V137.982L342.373 77.99C346.997 74.9466 350.322 70.1122 351.642 64.5123C352.962 58.9124 352.174 52.9873 349.444 47.9938C346.526 43.1471 341.969 39.6693 336.709 38.2747C331.449 36.88 325.886 37.6745 321.161 40.4948L215.384 105.886C212.031 107.974 209.25 110.954 207.315 114.532C205.381 118.109 204.36 122.16 204.354 126.284V437.344C205.344 439.594 204.354 438.244 207.315 441.393C209.162 444.093 210.859 444.543 212.98 445.893C215.525 448.143 216.374 448.592 218.919 449.042C221.649 450.341 223.139 449.942 226.131 449.942C229.123 449.942 228.916 449.891 231.646 448.592C234.376 447.294 234.192 447.693 237.162 445.893C239.707 444.093 240.131 443.643 242.677 441.393C243.949 439.144 245.646 438.694 246.495 435.094V236.67L432.312 123.284C437.195 120.271 440.764 115.341 442.246 109.559C443.728 103.777 443.004 97.6084 440.231 92.3881Z" fill="#D2AEFF"/>
<path d="M225.566 50.3935C238.687 50.3935 249.323 39.1126 249.323 25.1968C249.323 11.281 238.687 0 225.566 0C212.445 0 201.808 11.281 201.808 25.1968C201.808 39.1126 212.445 50.3935 225.566 50.3935Z" fill="#B7ACEA"/>
<path d="M154.011 257.367C157.261 259.25 159.974 262.026 161.865 265.404C163.756 268.782 164.755 272.636 164.758 276.565V398.949C164.776 402.921 163.788 406.826 161.897 410.256C160.007 413.685 157.283 416.514 154.011 418.446C150.808 420.342 147.214 421.372 143.546 421.446C139.793 421.339 136.115 420.312 132.799 418.446L10.6178 343.756C5.74215 340.773 2.1836 335.857 0.724994 330.091C-0.733611 324.325 0.0272217 318.181 2.8401 313.01C5.65298 307.839 10.2875 304.065 15.7241 302.518C21.1607 300.971 26.9541 301.778 31.8298 304.761L122.334 359.954V289.763L81.3244 264.866C76.6586 261.867 73.2618 257.077 71.8397 251.491C70.4176 245.904 71.0795 239.952 73.6881 234.87C76.4657 229.863 80.983 226.211 86.2706 224.697C91.5582 223.183 97.1947 223.928 101.971 226.771L154.011 257.367Z" fill="#B3CFFF"/>
<path d="M34.658 235.77C47.7789 235.77 58.4154 224.489 58.4154 210.573C58.4154 196.657 47.7789 185.376 34.658 185.376C21.5372 185.376 10.9006 196.657 10.9006 210.573C10.9006 224.489 21.5372 235.77 34.658 235.77Z" fill="#B3CFFF"/>
<path d="M348.029 225.571C352.805 222.728 358.442 221.983 363.729 223.497C369.017 225.012 373.534 228.664 376.312 233.67C378.921 238.752 379.582 244.705 378.16 250.291C376.738 255.877 373.341 260.667 368.676 263.666L327.666 288.563V358.754L418.17 303.561C420.584 302.084 423.249 301.126 426.013 300.741C428.776 300.356 431.584 300.552 434.276 301.318C436.968 302.084 439.491 303.405 441.702 305.205C443.912 307.005 445.767 309.25 447.16 311.81C448.553 314.371 449.456 317.197 449.819 320.128C450.182 323.059 449.997 326.037 449.275 328.892C448.553 331.747 447.307 334.423 445.61 336.767C443.913 339.112 441.796 341.079 439.382 342.556L317.201 417.247C313.885 419.113 310.207 420.139 306.454 420.246C302.786 420.173 299.192 419.142 295.989 417.247C292.717 415.314 289.993 412.485 288.103 409.056C286.212 405.626 285.224 401.722 285.242 397.749V276.265C285.245 272.337 286.244 268.482 288.135 265.104C290.026 261.726 292.739 258.95 295.989 257.067L348.029 225.571Z" fill="#B881FF"/>
<path d="M415.908 235.47C429.029 235.47 439.665 224.189 439.665 210.273C439.665 196.357 429.029 185.076 415.908 185.076C402.787 185.076 392.15 196.357 392.15 210.273C392.15 224.189 402.787 235.47 415.908 235.47Z" fill="#B881FF"/>
</svg>
