<svg width="30" height="30" viewBox="0 0 30 30" fill="none" xmlns="http://www.w3.org/2000/svg">
<path d="M22.5 0H7.5C3.35786 0 0 3.35786 0 7.5V22.5C0 26.6421 3.35786 30 7.5 30H22.5C26.6421 30 30 26.6421 30 22.5V7.5C30 3.35786 26.6421 0 22.5 0Z" fill="#533ABB"/>
<path fill-rule="evenodd" clip-rule="evenodd" d="M14.0617 10C13.6916 8.56231 12.3865 7.5 10.8333 7.5C8.99238 7.5 7.5 8.99238 7.5 10.8333C7.5 12.6743 8.99238 14.1667 10.8333 14.1667C12.3865 14.1667 13.6916 13.1044 14.0617 11.6667H16.9444V14.4444H18.6111V11.6667H19.7222V14.4444H21.3889V11.6667H22.5V10H14.0617ZM12.5 10.8333C12.5 11.7538 11.7538 12.5 10.8333 12.5C9.91286 12.5 9.16667 11.7538 9.16667 10.8333C9.16667 9.91286 9.91286 9.16667 10.8333 9.16667C11.7538 9.16667 12.5 9.91286 12.5 10.8333Z" fill="white"/>
<path fill-rule="evenodd" clip-rule="evenodd" d="M15.9383 19.9999C16.3084 21.4376 17.6135 22.4999 19.1667 22.4999C21.0076 22.4999 22.5 21.0075 22.5 19.1666C22.5 17.3256 21.0076 15.8332 19.1667 15.8332C17.6135 15.8332 16.3084 16.8955 15.9383 18.3332H13.0556V15.5555H11.3889V18.3332H10.2778V15.5555H8.61111V18.3332H7.5V19.9999H15.9383ZM17.5 19.1666C17.5 18.2461 18.2462 17.4999 19.1667 17.4999C20.0871 17.4999 20.8333 18.2461 20.8333 19.1666C20.8333 20.087 20.0871 20.8332 19.1667 20.8332C18.2462 20.8332 17.5 20.087 17.5 19.1666Z" fill="white"/>
</svg>
